<?xml version="1.0" encoding="utf-8"?>
<COLLADA xmlns="http://www.collada.org/2005/11/COLLADASchema" version="1.4.1">
  <asset><unit name="meter" meter="1"/><up_axis>Z_UP</up_axis></asset>
  <library_effects>
    <effect id="cratewood-effect"><profile_COMMON><technique sid="common"><lambert><emission><color sid="emission">0 0 0 1</color></emission><diffuse><color sid="diffuse">0.8 0.8 0.8 1</color></diffuse><reflectivity><float sid="specular">1</float></reflectivity><index_of_refraction><float sid="ior">1.45</float></index_of_refraction></lambert></technique></profile_COMMON></effect>
  </library_effects>
  <library_materials>
    <material id="cratewood-material" name="cratewood"><instance_effect url="#cratewood-effect"/></material>
  </library_materials>
  <library_geometries>
    <geometry id="mesh" name="mesh"><mesh>
      <source id="mesh-positions"><float_array id="mesh-positions-array" count="108">0.500000 -0.500000 -0.500000 0.500000 0.500000 -0.500000 0.500000 0.500000 0.500000 0.500000 -0.500000 -0.500000 0.500000 0.500000 0.500000 0.500000 -0.500000 0.500000 -0.500000 0.500000 -0.500000 -0.500000 -0.500000 -0.500000 -0.500000 -0.500000 0.500000 -0.500000 0.500000 -0.500000 -0.500000 -0.500000 0.500000 -0.500000 0.500000 0.500000 -0.500000 0.500000 -0.500000 0.500000 0.500000 -0.500000 0.500000 0.500000 0.500000 -0.500000 0.500000 -0.500000 0.500000 0.500000 0.500000 -0.500000 0.500000 0.500000 0.500000 -0.500000 -0.500000 -0.500000 -0.500000 -0.500000 -0.500000 -0.500000 0.500000 0.500000 -0.500000 -0.500000 -0.500000 -0.500000 0.500000 0.500000 -0.500000 0.500000 -0.500000 -0.500000 0.500000 0.500000 -0.500000 0.500000 0.500000 0.500000 0.500000 -0.500000 -0.500000 0.500000 0.500000 0.500000 0.500000 -0.500000 0.500000 0.500000 -0.500000 0.500000 -0.500000 -0.500000 -0.500000 -0.500000 0.500000 -0.500000 -0.500000 -0.500000 0.500000 -0.500000 0.500000 -0.500000 -0.500000 0.500000 0.500000 -0.500000</float_array>
        <technique_common><accessor source="#mesh-positions-array" count="36" stride="3"><param name="X" type="float"/><param name="Y" type="float"/><param name="Z" type="float"/></accessor></technique_common>
      </source>
      <source id="mesh-normals"><float_array id="mesh-normals-array" count="108">1.000000 0.000000 0.000000 1.000000 0.000000 0.000000 1.000000 0.000000 0.000000 1.000000 0.000000 0.000000 1.000000 0.000000 0.000000 1.000000 0.000000 0.000000 -1.000000 0.000000 0.000000 -1.000000 0.000000 0.000000 -1.000000 0.000000 0.000000 -1.000000 0.000000 0.000000 -1.000000 0.000000 0.000000 -1.000000 0.000000 0.000000 0.000000 1.000000 0.000000 0.000000 1.000000 0.000000 0.000000 1.000000 0.000000 0.000000 1.000000 0.000000 0.000000 1.000000 0.000000 0.000000 1.000000 0.000000 0.000000 -1.000000 0.000000 0.000000 -1.000000 0.000000 0.000000 -1.000000 0.000000 0.000000 -1.000000 0.000000 0.000000 -1.000000 0.000000 0.000000 -1.000000 0.000000 0.000000 0.000000 1.000000 0.000000 0.000000 1.000000 0.000000 0.000000 1.000000 0.000000 0.000000 1.000000 0.000000 0.000000 1.000000 0.000000 0.000000 1.000000 0.000000 0.000000 -1.000000 0.000000 0.000000 -1.000000 0.000000 0.000000 -1.000000 0.000000 0.000000 -1.000000 0.000000 0.000000 -1.000000 0.000000 0.000000 -1.000000</float_array>
        <technique_common><accessor source="#mesh-normals-array" count="36" stride="3"><param name="X" type="float"/><param name="Y" type="float"/><param name="Z" type="float"/></accessor></technique_common>
      </source>
      <source id="mesh-map-0"><float_array id="mesh-map-0-array" count="72">0.000000 1.000000 1.000000 1.000000 1.000000 0.000000 0.000000 1.000000 1.000000 0.000000 0.000000 0.000000 0.000000 1.000000 1.000000 1.000000 1.000000 0.000000 0.000000 1.000000 1.000000 0.000000 0.000000 0.000000 0.000000 1.000000 1.000000 1.000000 1.000000 0.000000 0.000000 1.000000 1.000000 0.000000 0.000000 0.000000 0.000000 1.000000 1.000000 1.000000 1.000000 0.000000 0.000000 1.000000 1.000000 0.000000 0.000000 0.000000 0.000000 1.000000 1.000000 1.000000 1.000000 0.000000 0.000000 1.000000 1.000000 0.000000 0.000000 0.000000 0.000000 1.000000 1.000000 1.000000 1.000000 0.000000 0.000000 1.000000 1.000000 0.000000 0.000000 0.000000</float_array>
        <technique_common><accessor source="#mesh-map-0-array" count="36" stride="2"><param name="S" type="float"/><param name="T" type="float"/></accessor></technique_common>
      </source>
      <vertices id="mesh-vertices"><input semantic="POSITION" source="#mesh-positions"/></vertices>
      <triangles material="cratewood-material" count="12"><input semantic="VERTEX" source="#mesh-vertices" offset="0"/><input semantic="NORMAL" source="#mesh-normals" offset="1"/><input semantic="TEXCOORD" source="#mesh-map-0" offset="2" set="0"/><p>0 0 0 1 1 1 2 2 2 3 3 3 4 4 4 5 5 5 6 6 6 7 7 7 8 8 8 9 9 9 10 10 10 11 11 11 12 12 12 13 13 13 14 14 14 15 15 15 16 16 16 17 17 17 18 18 18 19 19 19 20 20 20 21 21 21 22 22 22 23 23 23 24 24 24 25 25 25 26 26 26 27 27 27 28 28 28 29 29 29 30 30 30 31 31 31 32 32 32 33 33 33 34 34 34 35 35 35</p></triangles>
    </mesh></geometry>
  </library_geometries>
  <library_visual_scenes><visual_scene id="Scene" name="Scene">
    <node id="mesh" name="mesh" type="NODE"><instance_geometry url="#mesh">
      <bind_material><technique_common>
        <instance_material symbol="cratewood-material" target="#cratewood-material"/>
      </technique_common></bind_material>
    </instance_geometry></node>
  </visual_scene></library_visual_scenes>
  <scene><instance_visual_scene url="#Scene"/></scene>
</COLLADA>
