<?xml version="1.0" encoding="utf-8"?>
<COLLADA xmlns="http://www.collada.org/2005/11/COLLADASchema" version="1.4.1">
  <asset><unit name="meter" meter="1"/><up_axis>Z_UP</up_axis></asset>
  <library_effects>
    <effect id="barrelmetal-effect"><profile_COMMON><technique sid="common"><lambert><emission><color sid="emission">0 0 0 1</color></emission><diffuse><color sid="diffuse">0.8 0.8 0.8 1</color></diffuse><reflectivity><float sid="specular">1</float></reflectivity><index_of_refraction><float sid="ior">1.45</float></index_of_refraction></lambert></technique></profile_COMMON></effect>
  </library_effects>
  <library_materials>
    <material id="barrelmetal-material" name="barrelmetal"><instance_effect url="#barrelmetal-effect"/></material>
  </library_materials>
  <library_geometries>
    <geometry id="mesh" name="mesh"><mesh>
      <source id="mesh-positions"><float_array id="mesh-positions-array" count="864">0.280000 0.000000 -0.450000 0.270459 0.072469 -0.450000 0.270459 0.072469 0.450000 0.280000 0.000000 -0.450000 0.270459 0.072469 0.450000 0.280000 0.000000 0.450000 0.270459 0.072469 -0.450000 0.242487 0.140000 -0.450000 0.242487 0.140000 0.450000 0.270459 0.072469 -0.450000 0.242487 0.140000 0.450000 0.270459 0.072469 0.450000 0.242487 0.140000 -0.450000 0.197990 0.197990 -0.450000 0.197990 0.197990 0.450000 0.242487 0.140000 -0.450000 0.197990 0.197990 0.450000 0.242487 0.140000 0.450000 0.197990 0.197990 -0.450000 0.140000 0.242487 -0.450000 0.140000 0.242487 0.450000 0.197990 0.197990 -0.450000 0.140000 0.242487 0.450000 0.197990 0.197990 0.450000 0.140000 0.242487 -0.450000 0.072469 0.270459 -0.450000 0.072469 0.270459 0.450000 0.140000 0.242487 -0.450000 0.072469 0.270459 0.450000 0.140000 0.242487 0.450000 0.072469 0.270459 -0.450000 0.000000 0.280000 -0.450000 0.000000 0.280000 0.450000 0.072469 0.270459 -0.450000 0.000000 0.280000 0.450000 0.072469 0.270459 0.450000 0.000000 0.280000 -0.450000 -0.072469 0.270459 -0.450000 -0.072469 0.270459 0.450000 0.000000 0.280000 -0.450000 -0.072469 0.270459 0.450000 0.000000 0.280000 0.450000 -0.072469 0.270459 -0.450000 -0.140000 0.242487 -0.450000 -0.140000 0.242487 0.450000 -0.072469 0.270459 -0.450000 -0.140000 0.242487 0.450000 -0.072469 0.270459 0.450000 -0.140000 0.242487 -0.450000 -0.197990 0.197990 -0.450000 -0.197990 0.197990 0.450000 -0.140000 0.242487 -0.450000 -0.197990 0.197990 0.450000 -0.140000 0.242487 0.450000 -0.197990 0.197990 -0.450000 -0.242487 0.140000 -0.450000 -0.242487 0.140000 0.450000 -0.197990 0.197990 -0.450000 -0.242487 0.140000 0.450000 -0.197990 0.197990 0.450000 -0.242487 0.140000 -0.450000 -0.270459 0.072469 -0.450000 -0.270459 0.072469 0.450000 -0.242487 0.140000 -0.450000 -0.270459 0.072469 0.450000 -0.242487 0.140000 0.450000 -0.270459 0.072469 -0.450000 -0.280000 0.000000 -0.450000 -0.280000 0.000000 0.450000 -0.270459 0.072469 -0.450000 -0.280000 0.000000 0.450000 -0.270459 0.072469 0.450000 -0.280000 0.000000 -0.450000 -0.270459 -0.072469 -0.450000 -0.270459 -0.072469 0.450000 -0.280000 0.000000 -0.450000 -0.270459 -0.072469 0.450000 -0.280000 0.000000 0.450000 -0.270459 -0.072469 -0.450000 -0.242487 -0.140000 -0.450000 -0.242487 -0.140000 0.450000 -0.270459 -0.072469 -0.450000 -0.242487 -0.140000 0.450000 -0.270459 -0.072469 0.450000 -0.242487 -0.140000 -0.450000 -0.197990 -0.197990 -0.450000 -0.197990 -0.197990 0.450000 -0.242487 -0.140000 -0.450000 -0.197990 -0.197990 0.450000 -0.242487 -0.140000 0.450000 -0.197990 -0.197990 -0.450000 -0.140000 -0.242487 -0.450000 -0.140000 -0.242487 0.450000 -0.197990 -0.197990 -0.450000 -0.140000 -0.242487 0.450000 -0.197990 -0.197990 0.450000 -0.140000 -0.242487 -0.450000 -0.072469 -0.270459 -0.450000 -0.072469 -0.270459 0.450000 -0.140000 -0.242487 -0.450000 -0.072469 -0.270459 0.450000 -0.140000 -0.242487 0.450000 -0.072469 -0.270459 -0.450000 -0.000000 -0.280000 -0.450000 -0.000000 -0.280000 0.450000 -0.072469 -0.270459 -0.450000 -0.000000 -0.280000 0.450000 -0.072469 -0.270459 0.450000 -0.000000 -0.280000 -0.450000 0.072469 -0.270459 -0.450000 0.072469 -0.270459 0.450000 -0.000000 -0.280000 -0.450000 0.072469 -0.270459 0.450000 -0.000000 -0.280000 0.450000 0.072469 -0.270459 -0.450000 0.140000 -0.242487 -0.450000 0.140000 -0.242487 0.450000 0.072469 -0.270459 -0.450000 0.140000 -0.242487 0.450000 0.072469 -0.270459 0.450000 0.140000 -0.242487 -0.450000 0.197990 -0.197990 -0.450000 0.197990 -0.197990 0.450000 0.140000 -0.242487 -0.450000 0.197990 -0.197990 0.450000 0.140000 -0.242487 0.450000 0.197990 -0.197990 -0.450000 0.242487 -0.140000 -0.450000 0.242487 -0.140000 0.450000 0.197990 -0.197990 -0.450000 0.242487 -0.140000 0.450000 0.197990 -0.197990 0.450000 0.242487 -0.140000 -0.450000 0.270459 -0.072469 -0.450000 0.270459 -0.072469 0.450000 0.242487 -0.140000 -0.450000 0.270459 -0.072469 0.450000 0.242487 -0.140000 0.450000 0.270459 -0.072469 -0.450000 0.280000 -0.000000 -0.450000 0.280000 -0.000000 0.450000 0.270459 -0.072469 -0.450000 0.280000 -0.000000 0.450000 0.270459 -0.072469 0.450000 0.000000 0.000000 0.450000 0.280000 0.000000 0.450000 0.270459 0.072469 0.450000 0.000000 0.000000 0.450000 0.270459 0.072469 0.450000 0.242487 0.140000 0.450000 0.000000 0.000000 0.450000 0.242487 0.140000 0.450000 0.197990 0.197990 0.450000 0.000000 0.000000 0.450000 0.197990 0.197990 0.450000 0.140000 0.242487 0.450000 0.000000 0.000000 0.450000 0.140000 0.242487 0.450000 0.072469 0.270459 0.450000 0.000000 0.000000 0.450000 0.072469 0.270459 0.450000 0.000000 0.280000 0.450000 0.000000 0.000000 0.450000 0.000000 0.280000 0.450000 -0.072469 0.270459 0.450000 0.000000 0.000000 0.450000 -0.072469 0.270459 0.450000 -0.140000 0.242487 0.450000 0.000000 0.000000 0.450000 -0.140000 0.242487 0.450000 -0.197990 0.197990 0.450000 0.000000 0.000000 0.450000 -0.197990 0.197990 0.450000 -0.242487 0.140000 0.450000 0.000000 0.000000 0.450000 -0.242487 0.140000 0.450000 -0.270459 0.072469 0.450000 0.000000 0.000000 0.450000 -0.270459 0.072469 0.450000 -0.280000 0.000000 0.450000 0.000000 0.000000 0.450000 -0.280000 0.000000 0.450000 -0.270459 -0.072469 0.450000 0.000000 0.000000 0.450000 -0.270459 -0.072469 0.450000 -0.242487 -0.140000 0.450000 0.000000 0.000000 0.450000 -0.242487 -0.140000 0.450000 -0.197990 -0.197990 0.450000 0.000000 0.000000 0.450000 -0.197990 -0.197990 0.450000 -0.140000 -0.242487 0.450000 0.000000 0.000000 0.450000 -0.140000 -0.242487 0.450000 -0.072469 -0.270459 0.450000 0.000000 0.000000 0.450000 -0.072469 -0.270459 0.450000 -0.000000 -0.280000 0.450000 0.000000 0.000000 0.450000 -0.000000 -0.280000 0.450000 0.072469 -0.270459 0.450000 0.000000 0.000000 0.450000 0.072469 -0.270459 0.450000 0.140000 -0.242487 0.450000 0.000000 0.000000 0.450000 0.140000 -0.242487 0.450000 0.197990 -0.197990 0.450000 0.000000 0.000000 0.450000 0.197990 -0.197990 0.450000 0.242487 -0.140000 0.450000 0.000000 0.000000 0.450000 0.242487 -0.140000 0.450000 0.270459 -0.072469 0.450000 0.000000 0.000000 0.450000 0.270459 -0.072469 0.450000 0.280000 -0.000000 0.450000 0.000000 0.000000 -0.450000 0.270459 0.072469 -0.450000 0.280000 0.000000 -0.450000 0.000000 0.000000 -0.450000 0.242487 0.140000 -0.450000 0.270459 0.072469 -0.450000 0.000000 0.000000 -0.450000 0.197990 0.197990 -0.450000 0.242487 0.140000 -0.450000 0.000000 0.000000 -0.450000 0.140000 0.242487 -0.450000 0.197990 0.197990 -0.450000 0.000000 0.000000 -0.450000 0.072469 0.270459 -0.450000 0.140000 0.242487 -0.450000 0.000000 0.000000 -0.450000 0.000000 0.280000 -0.450000 0.072469 0.270459 -0.450000 0.000000 0.000000 -0.450000 -0.072469 0.270459 -0.450000 0.000000 0.280000 -0.450000 0.000000 0.000000 -0.450000 -0.140000 0.242487 -0.450000 -0.072469 0.270459 -0.450000 0.000000 0.000000 -0.450000 -0.197990 0.197990 -0.450000 -0.140000 0.242487 -0.450000 0.000000 0.000000 -0.450000 -0.242487 0.140000 -0.450000 -0.197990 0.197990 -0.450000 0.000000 0.000000 -0.450000 -0.270459 0.072469 -0.450000 -0.242487 0.140000 -0.450000 0.000000 0.000000 -0.450000 -0.280000 0.000000 -0.450000 -0.270459 0.072469 -0.450000 0.000000 0.000000 -0.450000 -0.270459 -0.072469 -0.450000 -0.280000 0.000000 -0.450000 0.000000 0.000000 -0.450000 -0.242487 -0.140000 -0.450000 -0.270459 -0.072469 -0.450000 0.000000 0.000000 -0.450000 -0.197990 -0.197990 -0.450000 -0.242487 -0.140000 -0.450000 0.000000 0.000000 -0.450000 -0.140000 -0.242487 -0.450000 -0.197990 -0.197990 -0.450000 0.000000 0.000000 -0.450000 -0.072469 -0.270459 -0.450000 -0.140000 -0.242487 -0.450000 0.000000 0.000000 -0.450000 -0.000000 -0.280000 -0.450000 -0.072469 -0.270459 -0.450000 0.000000 0.000000 -0.450000 0.072469 -0.270459 -0.450000 -0.000000 -0.280000 -0.450000 0.000000 0.000000 -0.450000 0.140000 -0.242487 -0.450000 0.072469 -0.270459 -0.450000 0.000000 0.000000 -0.450000 0.197990 -0.197990 -0.450000 0.140000 -0.242487 -0.450000 0.000000 0.000000 -0.450000 0.242487 -0.140000 -0.450000 0.197990 -0.197990 -0.450000 0.000000 0.000000 -0.450000 0.270459 -0.072469 -0.450000 0.242487 -0.140000 -0.450000 0.000000 0.000000 -0.450000 0.280000 -0.000000 -0.450000 0.270459 -0.072469 -0.450000</float_array>
        <technique_common><accessor source="#mesh-positions-array" count="288" stride="3"><param name="X" type="float"/><param name="Y" type="float"/><param name="Z" type="float"/></accessor></technique_common>
      </source>
      <source id="mesh-normals"><float_array id="mesh-normals-array" count="864">1.000000 0.000000 0.000000 0.965926 0.258819 0.000000 0.965926 0.258819 0.000000 1.000000 0.000000 0.000000 0.965926 0.258819 0.000000 1.000000 0.000000 0.000000 0.965926 0.258819 0.000000 0.866025 0.500000 0.000000 0.866025 0.500000 0.000000 0.965926 0.258819 0.000000 0.866025 0.500000 0.000000 0.965926 0.258819 0.000000 0.866025 0.500000 0.000000 0.707107 0.707107 0.000000 0.707107 0.707107 0.000000 0.866025 0.500000 0.000000 0.707107 0.707107 0.000000 0.866025 0.500000 0.000000 0.707107 0.707107 0.000000 0.500000 0.866025 0.000000 0.500000 0.866025 0.000000 0.707107 0.707107 0.000000 0.500000 0.866025 0.000000 0.707107 0.707107 0.000000 0.500000 0.866025 0.000000 0.258819 0.965926 0.000000 0.258819 0.965926 0.000000 0.500000 0.866025 0.000000 0.258819 0.965926 0.000000 0.500000 0.866025 0.000000 0.258819 0.965926 0.000000 0.000000 1.000000 0.000000 0.000000 1.000000 0.000000 0.258819 0.965926 0.000000 0.000000 1.000000 0.000000 0.258819 0.965926 0.000000 0.000000 1.000000 0.000000 -0.258819 0.965926 0.000000 -0.258819 0.965926 0.000000 0.000000 1.000000 0.000000 -0.258819 0.965926 0.000000 0.000000 1.000000 0.000000 -0.258819 0.965926 0.000000 -0.500000 0.866025 0.000000 -0.500000 0.866025 0.000000 -0.258819 0.965926 0.000000 -0.500000 0.866025 0.000000 -0.258819 0.965926 0.000000 -0.500000 0.866025 0.000000 -0.707107 0.707107 0.000000 -0.707107 0.707107 0.000000 -0.500000 0.866025 0.000000 -0.707107 0.707107 0.000000 -0.500000 0.866025 0.000000 -0.707107 0.707107 0.000000 -0.866025 0.500000 0.000000 -0.866025 0.500000 0.000000 -0.707107 0.707107 0.000000 -0.866025 0.500000 0.000000 -0.707107 0.707107 0.000000 -0.866025 0.500000 0.000000 -0.965926 0.258819 0.000000 -0.965926 0.258819 0.000000 -0.866025 0.500000 0.000000 -0.965926 0.258819 0.000000 -0.866025 0.500000 0.000000 -0.965926 0.258819 0.000000 -1.000000 0.000000 0.000000 -1.000000 0.000000 0.000000 -0.965926 0.258819 0.000000 -1.000000 0.000000 0.000000 -0.965926 0.258819 0.000000 -1.000000 0.000000 0.000000 -0.965926 -0.258819 0.000000 -0.965926 -0.258819 0.000000 -1.000000 0.000000 0.000000 -0.965926 -0.258819 0.000000 -1.000000 0.000000 0.000000 -0.965926 -0.258819 0.000000 -0.866025 -0.500000 0.000000 -0.866025 -0.500000 0.000000 -0.965926 -0.258819 0.000000 -0.866025 -0.500000 0.000000 -0.965926 -0.258819 0.000000 -0.866025 -0.500000 0.000000 -0.707107 -0.707107 0.000000 -0.707107 -0.707107 0.000000 -0.866025 -0.500000 0.000000 -0.707107 -0.707107 0.000000 -0.866025 -0.500000 0.000000 -0.707107 -0.707107 0.000000 -0.500000 -0.866025 0.000000 -0.500000 -0.866025 0.000000 -0.707107 -0.707107 0.000000 -0.500000 -0.866025 0.000000 -0.707107 -0.707107 0.000000 -0.500000 -0.866025 0.000000 -0.258819 -0.965926 0.000000 -0.258819 -0.965926 0.000000 -0.500000 -0.866025 0.000000 -0.258819 -0.965926 0.000000 -0.500000 -0.866025 0.000000 -0.258819 -0.965926 0.000000 -0.000000 -1.000000 0.000000 -0.000000 -1.000000 0.000000 -0.258819 -0.965926 0.000000 -0.000000 -1.000000 0.000000 -0.258819 -0.965926 0.000000 -0.000000 -1.000000 0.000000 0.258819 -0.965926 0.000000 0.258819 -0.965926 0.000000 -0.000000 -1.000000 0.000000 0.258819 -0.965926 0.000000 -0.000000 -1.000000 0.000000 0.258819 -0.965926 0.000000 0.500000 -0.866025 0.000000 0.500000 -0.866025 0.000000 0.258819 -0.965926 0.000000 0.500000 -0.866025 0.000000 0.258819 -0.965926 0.000000 0.500000 -0.866025 0.000000 0.707107 -0.707107 0.000000 0.707107 -0.707107 0.000000 0.500000 -0.866025 0.000000 0.707107 -0.707107 0.000000 0.500000 -0.866025 0.000000 0.707107 -0.707107 0.000000 0.866025 -0.500000 0.000000 0.866025 -0.500000 0.000000 0.707107 -0.707107 0.000000 0.866025 -0.500000 0.000000 0.707107 -0.707107 0.000000 0.866025 -0.500000 0.000000 0.965926 -0.258819 0.000000 0.965926 -0.258819 0.000000 0.866025 -0.500000 0.000000 0.965926 -0.258819 0.000000 0.866025 -0.500000 0.000000 0.965926 -0.258819 0.000000 1.000000 -0.000000 0.000000 1.000000 -0.000000 0.000000 0.965926 -0.258819 0.000000 1.000000 -0.000000 0.000000 0.965926 -0.258819 0.000000 0.000000 0.000000 1.000000 0.000000 0.000000 1.000000 0.000000 0.000000 1.000000 0.000000 0.000000 1.000000 0.000000 0.000000 1.000000 0.000000 0.000000 1.000000 0.000000 0.000000 1.000000 0.000000 0.000000 1.000000 0.000000 0.000000 1.000000 0.000000 0.000000 1.000000 0.000000 0.000000 1.000000 0.000000 0.000000 1.000000 0.000000 0.000000 1.000000 0.000000 0.000000 1.000000 0.000000 0.000000 1.000000 0.000000 0.000000 1.000000 0.000000 0.000000 1.000000 0.000000 0.000000 1.000000 0.000000 0.000000 1.000000 0.000000 0.000000 1.000000 0.000000 0.000000 1.000000 0.000000 0.000000 1.000000 0.000000 0.000000 1.000000 0.000000 0.000000 1.000000 0.000000 0.000000 1.000000 0.000000 0.000000 1.000000 0.000000 0.000000 1.000000 0.000000 0.000000 1.000000 0.000000 0.000000 1.000000 0.000000 0.000000 1.000000 0.000000 0.000000 1.000000 0.000000 0.000000 1.000000 0.000000 0.000000 1.000000 0.000000 0.000000 1.000000 0.000000 0.000000 1.000000 0.000000 0.000000 1.000000 0.000000 0.000000 1.000000 0.000000 0.000000 1.000000 0.000000 0.000000 1.000000 0.000000 0.000000 1.000000 0.000000 0.000000 1.000000 0.000000 0.000000 1.000000 0.000000 0.000000 1.000000 0.000000 0.000000 1.000000 0.000000 0.000000 1.000000 0.000000 0.000000 1.000000 0.000000 0.000000 1.000000 0.000000 0.000000 1.000000 0.000000 0.000000 1.000000 0.000000 0.000000 1.000000 0.000000 0.000000 1.000000 0.000000 0.000000 1.000000 0.000000 0.000000 1.000000 0.000000 0.000000 1.000000 0.000000 0.000000 1.000000 0.000000 0.000000 1.000000 0.000000 0.000000 1.000000 0.000000 0.000000 1.000000 0.000000 0.000000 1.000000 0.000000 0.000000 1.000000 0.000000 0.000000 1.000000 0.000000 0.000000 1.000000 0.000000 0.000000 1.000000 0.000000 0.000000 1.000000 0.000000 0.000000 1.000000 0.000000 0.000000 1.000000 0.000000 0.000000 1.000000 0.000000 0.000000 1.000000 0.000000 0.000000 1.000000 0.000000 0.000000 1.000000 0.000000 0.000000 1.000000 0.000000 0.000000 1.000000 0.000000 0.000000 -1.000000 0.000000 0.000000 -1.000000 0.000000 0.000000 -1.000000 0.000000 0.000000 -1.000000 0.000000 0.000000 -1.000000 0.000000 0.000000 -1.000000 0.000000 0.000000 -1.000000 0.000000 0.000000 -1.000000 0.000000 0.000000 -1.000000 0.000000 0.000000 -1.000000 0.000000 0.000000 -1.000000 0.000000 0.000000 -1.000000 0.000000 0.000000 -1.000000 0.000000 0.000000 -1.000000 0.000000 0.000000 -1.000000 0.000000 0.000000 -1.000000 0.000000 0.000000 -1.000000 0.000000 0.000000 -1.000000 0.000000 0.000000 -1.000000 0.000000 0.000000 -1.000000 0.000000 0.000000 -1.000000 0.000000 0.000000 -1.000000 0.000000 0.000000 -1.000000 0.000000 0.000000 -1.000000 0.000000 0.000000 -1.000000 0.000000 0.000000 -1.000000 0.000000 0.000000 -1.000000 0.000000 0.000000 -1.000000 0.000000 0.000000 -1.000000 0.000000 0.000000 -1.000000 0.000000 0.000000 -1.000000 0.000000 0.000000 -1.000000 0.000000 0.000000 -1.000000 0.000000 0.000000 -1.000000 0.000000 0.000000 -1.000000 0.000000 0.000000 -1.000000 0.000000 0.000000 -1.000000 0.000000 0.000000 -1.000000 0.000000 0.000000 -1.000000 0.000000 0.000000 -1.000000 0.000000 0.000000 -1.000000 0.000000 0.000000 -1.000000 0.000000 0.000000 -1.000000 0.000000 0.000000 -1.000000 0.000000 0.000000 -1.000000 0.000000 0.000000 -1.000000 0.000000 0.000000 -1.000000 0.000000 0.000000 -1.000000 0.000000 0.000000 -1.000000 0.000000 0.000000 -1.000000 0.000000 0.000000 -1.000000 0.000000 0.000000 -1.000000 0.000000 0.000000 -1.000000 0.000000 0.000000 -1.000000 0.000000 0.000000 -1.000000 0.000000 0.000000 -1.000000 0.000000 0.000000 -1.000000 0.000000 0.000000 -1.000000 0.000000 0.000000 -1.000000 0.000000 0.000000 -1.000000 0.000000 0.000000 -1.000000 0.000000 0.000000 -1.000000 0.000000 0.000000 -1.000000 0.000000 0.000000 -1.000000 0.000000 0.000000 -1.000000 0.000000 0.000000 -1.000000 0.000000 0.000000 -1.000000 0.000000 0.000000 -1.000000 0.000000 0.000000 -1.000000 0.000000 0.000000 -1.000000 0.000000 0.000000 -1.000000 0.000000 0.000000 -1.000000</float_array>
        <technique_common><accessor source="#mesh-normals-array" count="288" stride="3"><param name="X" type="float"/><param name="Y" type="float"/><param name="Z" type="float"/></accessor></technique_common>
      </source>
      <source id="mesh-map-0"><float_array id="mesh-map-0-array" count="576">0.000000 0.000000 0.041667 0.000000 0.041667 1.000000 0.000000 0.000000 0.041667 1.000000 0.000000 1.000000 0.041667 0.000000 0.083333 0.000000 0.083333 1.000000 0.041667 0.000000 0.083333 1.000000 0.041667 1.000000 0.083333 0.000000 0.125000 0.000000 0.125000 1.000000 0.083333 0.000000 0.125000 1.000000 0.083333 1.000000 0.125000 0.000000 0.166667 0.000000 0.166667 1.000000 0.125000 0.000000 0.166667 1.000000 0.125000 1.000000 0.166667 0.000000 0.208333 0.000000 0.208333 1.000000 0.166667 0.000000 0.208333 1.000000 0.166667 1.000000 0.208333 0.000000 0.250000 0.000000 0.250000 1.000000 0.208333 0.000000 0.250000 1.000000 0.208333 1.000000 0.250000 0.000000 0.291667 0.000000 0.291667 1.000000 0.250000 0.000000 0.291667 1.000000 0.250000 1.000000 0.291667 0.000000 0.333333 0.000000 0.333333 1.000000 0.291667 0.000000 0.333333 1.000000 0.291667 1.000000 0.333333 0.000000 0.375000 0.000000 0.375000 1.000000 0.333333 0.000000 0.375000 1.000000 0.333333 1.000000 0.375000 0.000000 0.416667 0.000000 0.416667 1.000000 0.375000 0.000000 0.416667 1.000000 0.375000 1.000000 0.416667 0.000000 0.458333 0.000000 0.458333 1.000000 0.416667 0.000000 0.458333 1.000000 0.416667 1.000000 0.458333 0.000000 0.500000 0.000000 0.500000 1.000000 0.458333 0.000000 0.500000 1.000000 0.458333 1.000000 0.500000 0.000000 0.541667 0.000000 0.541667 1.000000 0.500000 0.000000 0.541667 1.000000 0.500000 1.000000 0.541667 0.000000 0.583333 0.000000 0.583333 1.000000 0.541667 0.000000 0.583333 1.000000 0.541667 1.000000 0.583333 0.000000 0.625000 0.000000 0.625000 1.000000 0.583333 0.000000 0.625000 1.000000 0.583333 1.000000 0.625000 0.000000 0.666667 0.000000 0.666667 1.000000 0.625000 0.000000 0.666667 1.000000 0.625000 1.000000 0.666667 0.000000 0.708333 0.000000 0.708333 1.000000 0.666667 0.000000 0.708333 1.000000 0.666667 1.000000 0.708333 0.000000 0.750000 0.000000 0.750000 1.000000 0.708333 0.000000 0.750000 1.000000 0.708333 1.000000 0.750000 0.000000 0.791667 0.000000 0.791667 1.000000 0.750000 0.000000 0.791667 1.000000 0.750000 1.000000 0.791667 0.000000 0.833333 0.000000 0.833333 1.000000 0.791667 0.000000 0.833333 1.000000 0.791667 1.000000 0.833333 0.000000 0.875000 0.000000 0.875000 1.000000 0.833333 0.000000 0.875000 1.000000 0.833333 1.000000 0.875000 0.000000 0.916667 0.000000 0.916667 1.000000 0.875000 0.000000 0.916667 1.000000 0.875000 1.000000 0.916667 0.000000 0.958333 0.000000 0.958333 1.000000 0.916667 0.000000 0.958333 1.000000 0.916667 1.000000 0.958333 0.000000 1.000000 0.000000 1.000000 1.000000 0.958333 0.000000 1.000000 1.000000 0.958333 1.000000 0.500000 0.500000 1.000000 0.500000 0.982963 0.629410 0.500000 0.500000 0.982963 0.629410 0.933013 0.750000 0.500000 0.500000 0.933013 0.750000 0.853553 0.853553 0.500000 0.500000 0.853553 0.853553 0.750000 0.933013 0.500000 0.500000 0.750000 0.933013 0.629410 0.982963 0.500000 0.500000 0.629410 0.982963 0.500000 1.000000 0.500000 0.500000 0.500000 1.000000 0.370590 0.982963 0.500000 0.500000 0.370590 0.982963 0.250000 0.933013 0.500000 0.500000 0.250000 0.933013 0.146447 0.853553 0.500000 0.500000 0.146447 0.853553 0.066987 0.750000 0.500000 0.500000 0.066987 0.750000 0.017037 0.629410 0.500000 0.500000 0.017037 0.629410 0.000000 0.500000 0.500000 0.500000 0.000000 0.500000 0.017037 0.370590 0.500000 0.500000 0.017037 0.370590 0.066987 0.250000 0.500000 0.500000 0.066987 0.250000 0.146447 0.146447 0.500000 0.500000 0.146447 0.146447 0.250000 0.066987 0.500000 0.500000 0.250000 0.066987 0.370590 0.017037 0.500000 0.500000 0.370590 0.017037 0.500000 0.000000 0.500000 0.500000 0.500000 0.000000 0.629410 0.017037 0.500000 0.500000 0.629410 0.017037 0.750000 0.066987 0.500000 0.500000 0.750000 0.066987 0.853553 0.146447 0.500000 0.500000 0.853553 0.146447 0.933013 0.250000 0.500000 0.500000 0.933013 0.250000 0.982963 0.370590 0.500000 0.500000 0.982963 0.370590 1.000000 0.500000 0.500000 0.500000 0.982963 0.629410 1.000000 0.500000 0.500000 0.500000 0.933013 0.750000 0.982963 0.629410 0.500000 0.500000 0.853553 0.853553 0.933013 0.750000 0.500000 0.500000 0.750000 0.933013 0.853553 0.853553 0.500000 0.500000 0.629410 0.982963 0.750000 0.933013 0.500000 0.500000 0.500000 1.000000 0.629410 0.982963 0.500000 0.500000 0.370590 0.982963 0.500000 1.000000 0.500000 0.500000 0.250000 0.933013 0.370590 0.982963 0.500000 0.500000 0.146447 0.853553 0.250000 0.933013 0.500000 0.500000 0.066987 0.750000 0.146447 0.853553 0.500000 0.500000 0.017037 0.629410 0.066987 0.750000 0.500000 0.500000 0.000000 0.500000 0.017037 0.629410 0.500000 0.500000 0.017037 0.370590 0.000000 0.500000 0.500000 0.500000 0.066987 0.250000 0.017037 0.370590 0.500000 0.500000 0.146447 0.146447 0.066987 0.250000 0.500000 0.500000 0.250000 0.066987 0.146447 0.146447 0.500000 0.500000 0.370590 0.017037 0.250000 0.066987 0.500000 0.500000 0.500000 0.000000 0.370590 0.017037 0.500000 0.500000 0.629410 0.017037 0.500000 0.000000 0.500000 0.500000 0.750000 0.066987 0.629410 0.017037 0.500000 0.500000 0.853553 0.146447 0.750000 0.066987 0.500000 0.500000 0.933013 0.250000 0.853553 0.146447 0.500000 0.500000 0.982963 0.370590 0.933013 0.250000 0.500000 0.500000 1.000000 0.500000 0.982963 0.370590</float_array>
        <technique_common><accessor source="#mesh-map-0-array" count="288" stride="2"><param name="S" type="float"/><param name="T" type="float"/></accessor></technique_common>
      </source>
      <vertices id="mesh-vertices"><input semantic="POSITION" source="#mesh-positions"/></vertices>
      <triangles material="barrelmetal-material" count="96"><input semantic="VERTEX" source="#mesh-vertices" offset="0"/><input semantic="NORMAL" source="#mesh-normals" offset="1"/><input semantic="TEXCOORD" source="#mesh-map-0" offset="2" set="0"/><p>0 0 0 1 1 1 2 2 2 3 3 3 4 4 4 5 5 5 6 6 6 7 7 7 8 8 8 9 9 9 10 10 10 11 11 11 12 12 12 13 13 13 14 14 14 15 15 15 16 16 16 17 17 17 18 18 18 19 19 19 20 20 20 21 21 21 22 22 22 23 23 23 24 24 24 25 25 25 26 26 26 27 27 27 28 28 28 29 29 29 30 30 30 31 31 31 32 32 32 33 33 33 34 34 34 35 35 35 36 36 36 37 37 37 38 38 38 39 39 39 40 40 40 41 41 41 42 42 42 43 43 43 44 44 44 45 45 45 46 46 46 47 47 47 48 48 48 49 49 49 50 50 50 51 51 51 52 52 52 53 53 53 54 54 54 55 55 55 56 56 56 57 57 57 58 58 58 59 59 59 60 60 60 61 61 61 62 62 62 63 63 63 64 64 64 65 65 65 66 66 66 67 67 67 68 68 68 69 69 69 70 70 70 71 71 71 72 72 72 73 73 73 74 74 74 75 75 75 76 76 76 77 77 77 78 78 78 79 79 79 80 80 80 81 81 81 82 82 82 83 83 83 84 84 84 85 85 85 86 86 86 87 87 87 88 88 88 89 89 89 90 90 90 91 91 91 92 92 92 93 93 93 94 94 94 95 95 95 96 96 96 97 97 97 98 98 98 99 99 99 100 100 100 101 101 101 102 102 102 103 103 103 104 104 104 105 105 105 106 106 106 107 107 107 108 108 108 109 109 109 110 110 110 111 111 111 112 112 112 113 113 113 114 114 114 115 115 115 116 116 116 117 117 117 118 118 118 119 119 119 120 120 120 121 121 121 122 122 122 123 123 123 124 124 124 125 125 125 126 126 126 127 127 127 128 128 128 129 129 129 130 130 130 131 131 131 132 132 132 133 133 133 134 134 134 135 135 135 136 136 136 137 137 137 138 138 138 139 139 139 140 140 140 141 141 141 142 142 142 143 143 143 144 144 144 145 145 145 146 146 146 147 147 147 148 148 148 149 149 149 150 150 150 151 151 151 152 152 152 153 153 153 154 154 154 155 155 155 156 156 156 157 157 157 158 158 158 159 159 159 160 160 160 161 161 161 162 162 162 163 163 163 164 164 164 165 165 165 166 166 166 167 167 167 168 168 168 169 169 169 170 170 170 171 171 171 172 172 172 173 173 173 174 174 174 175 175 175 176 176 176 177 177 177 178 178 178 179 179 179 180 180 180 181 181 181 182 182 182 183 183 183 184 184 184 185 185 185 186 186 186 187 187 187 188 188 188 189 189 189 190 190 190 191 191 191 192 192 192 193 193 193 194 194 194 195 195 195 196 196 196 197 197 197 198 198 198 199 199 199 200 200 200 201 201 201 202 202 202 203 203 203 204 204 204 205 205 205 206 206 206 207 207 207 208 208 208 209 209 209 210 210 210 211 211 211 212 212 212 213 213 213 214 214 214 215 215 215 216 216 216 217 217 217 218 218 218 219 219 219 220 220 220 221 221 221 222 222 222 223 223 223 224 224 224 225 225 225 226 226 226 227 227 227 228 228 228 229 229 229 230 230 230 231 231 231 232 232 232 233 233 233 234 234 234 235 235 235 236 236 236 237 237 237 238 238 238 239 239 239 240 240 240 241 241 241 242 242 242 243 243 243 244 244 244 245 245 245 246 246 246 247 247 247 248 248 248 249 249 249 250 250 250 251 251 251 252 252 252 253 253 253 254 254 254 255 255 255 256 256 256 257 257 257 258 258 258 259 259 259 260 260 260 261 261 261 262 262 262 263 263 263 264 264 264 265 265 265 266 266 266 267 267 267 268 268 268 269 269 269 270 270 270 271 271 271 272 272 272 273 273 273 274 274 274 275 275 275 276 276 276 277 277 277 278 278 278 279 279 279 280 280 280 281 281 281 282 282 282 283 283 283 284 284 284 285 285 285 286 286 286 287 287 287</p></triangles>
    </mesh></geometry>
  </library_geometries>
  <library_visual_scenes><visual_scene id="Scene" name="Scene">
    <node id="mesh" name="mesh" type="NODE"><instance_geometry url="#mesh">
      <bind_material><technique_common>
        <instance_material symbol="barrelmetal-material" target="#barrelmetal-material"/>
      </technique_common></bind_material>
    </instance_geometry></node>
  </visual_scene></library_visual_scenes>
  <scene><instance_visual_scene url="#Scene"/></scene>
</COLLADA>
